<svg width="24" height="24" viewBox="0 0 24 24" fill="none" xmlns="http://www.w3.org/2000/svg">
<path fill-rule="evenodd" clip-rule="evenodd" d="M3.05743 3.0592C2.96391 4.08792 2.79116 6.46361 4.3517 8.37376C3.73737 9.55863 3.3903 10.9044 3.3903 12.3312C3.3903 17.0862 7.24499 20.9409 12 20.9409C16.755 20.9409 20.6097 17.0862 20.6097 12.3312C20.6097 10.9044 20.2626 9.55862 19.6483 8.37376C21.2088 6.46361 21.0361 4.08792 20.9426 3.0592H20.2803C19.6865 3.65298 18.3235 4.70307 16.7624 5.15747C15.3985 4.25017 13.761 3.72149 12 3.72149C10.239 3.72149 8.60153 4.25017 7.23758 5.15747C5.67647 4.70307 4.31349 3.65298 3.71971 3.0592H3.05743ZM10.4765 14.2379C10.4765 15.0794 9.79438 15.7615 8.95296 15.7615C8.11155 15.7615 7.42944 15.0794 7.42944 14.2379C7.42944 13.3965 8.11155 12.7144 8.95296 12.7144C9.79438 12.7144 10.4765 13.3965 10.4765 14.2379ZM15.047 15.7615C15.8885 15.7615 16.5706 15.0794 16.5706 14.2379C16.5706 13.3965 15.8885 12.7144 15.047 12.7144C14.2056 12.7144 13.5235 13.3965 13.5235 14.2379C13.5235 15.0794 14.2056 15.7615 15.047 15.7615Z" fill="black"/>
</svg>
